<?xml version="1.0" encoding="UTF-8"?>
<svg id="Layer_1" data-name="Layer 1" xmlns="http://www.w3.org/2000/svg" viewBox="0 0 293.91 350.61">
  <defs>
    <style>
      .cls-1 {
        fill: #020202;
        font-family: BodoniBT-Bold, 'Bodoni Bd BT';
        font-size: 35.46px;
        font-weight: 700;
      }

      .cls-2 {
        fill: #f7f7f7;
      }

      .cls-2, .cls-3, .cls-4, .cls-5 {
        stroke-width: 0px;
      }

      .cls-3 {
        fill: #f9f9fa;
      }

      .cls-4 {
        fill: #f7fcfc;
      }

      .cls-5 {
        fill: #050606;
      }
    </style>
  </defs>
  <circle class="cls-5" cx="146.6" cy="146.6" r="146.6"/>
  <path class="cls-2" d="m243.8,86.34h-51.2v-11.82s-3.09-20.35-19.43-20.35h-54.27s-18.5-2.47-22.51,18.35v13.82h-40.89c-14.08,0-19.29,16.65-19.29,16.65l.06,23.05c-.92,15.34,8.35,17.96,8.35,17.96,3.72,3.39,49,11.72,49,11.72,32.38,4.62,37.31,2.78,37.31,2.78l.61-10.49c.31-7.4,4.93-6.48,4.93-6.48l20.96.31c6.77-1.23,6.8,6.78,6.8,6.78l.62,9.87c13.57,0,75.47-10.79,75.47-10.79,17.49-3.39,19.07-14.8,19.07-14.8l-.18-20.04c2.16-22.82-15.42-26.52-15.42-26.52Zm-134.15,0v-11.51s.93-9.56,15.11-6.78l47.49-.51s7.09,2.78,5.86,10.74l.09,8.06h-68.55Z"/>
  <path class="cls-4" d="m38.02,150.91s75.24,18.91,92.5,18.5l2.06,12.75c.89,11.15,34.73,8.16,33.3-1.64v-10.48s73.59-6.79,92.92-19.12v71.13s1.75,17.27-20.76,17.88H58.27s-16.03,1.85-21.89-17.27l1.64-71.74Z"/>
  <rect class="cls-3" x="140.32" y="171.6" width="15.52" height="10.48" rx="5.24" ry="5.24"/>
  <text class="cls-1" transform="translate(0 342.24)"><tspan x="0" y="0">Sahar Recruitment</tspan></text>
</svg>