<?xml version="1.0" encoding="UTF-8"?>
<svg id="Layer_1" data-name="Layer 1" xmlns="http://www.w3.org/2000/svg" viewBox="0 0 212.4 253.4">
  <defs>
    <style>
      .cls-1, .cls-2 {
        isolation: isolate;
      }

      .cls-3 {
        fill: #f7f7f7;
      }

      .cls-3, .cls-4, .cls-5, .cls-6 {
        stroke-width: 0px;
      }

      .cls-2 {
        fill: #020202;
        font-family: BodoniBT-Bold, 'Bodoni Bd BT';
        font-size: 17.2px;
        font-weight: 700;
      }

      .cls-4 {
        fill: #f9f9fa;
      }

      .cls-5 {
        fill: #f7fcfc;
      }

      .cls-6 {
        fill: #050606;
      }
    </style>
  </defs>
  <circle class="cls-6" cx="106.7" cy="119" r="59.7"/>
  <path class="cls-3" d="m140.5,91.5h-18.1v-4.2s-1.1-7.2-6.8-7.2h-19.2s-6.6-.9-8,6.5v4.9h-14.5c-5,0-6.8,5.9-6.8,5.9v8.2c-.3,5.4,3,6.4,3,6.4,1.3,1.2,17.3,4.2,17.3,4.2,11.4,1.6,13.2,1,13.2,1l.2-3.7c0-2.6,1.8-2.3,1.8-2.3h7.4c2.4-.3,2.4,2.5,2.4,2.5l.2,3.5c4.8,0,26.7-3.8,26.7-3.8,6.2-1.2,6.8-5.2,6.8-5.2v-7.1c.7-8.1-5.5-9.4-5.5-9.4h0Zm-47.4,0v-4.1s.3-3.4,5.3-2.4l16.8-.2s2.5,1,2.1,3.8v2.8h-24.2,0Z"/>
  <path class="cls-5" d="m67.8,114.3s26.6,6.7,32.7,6.6l.7,4.5c.3,4,12.3,2.9,11.8-.6v-3.7s26-2.4,32.9-6.8v25.1s.6,6.1-7.3,6.3h-63.6s-5.7.6-7.7-6.1l.6-25.3h0Z"/>
  <path class="cls-4" d="m105.8,121.6h1.8c1,0,1.9.8,1.9,1.9h0c0,1-.8,1.9-1.9,1.9h-1.8c-1,0-1.9-.8-1.9-1.9h0c0-1,.8-1.9,1.9-1.9Z"/>
  <g class="cls-1">
    <text class="cls-2" transform="translate(36.8 203.9)"><tspan x="0" y="0">Sahar </tspan></text>
    <text class="cls-2" transform="translate(85.5 203.9)"><tspan x="0" y="0">R</tspan></text>
    <text class="cls-2" transform="translate(97.5 203.9)"><tspan x="0" y="0">ecruitment</tspan></text>
  </g>
</svg>